<svg xmlns="http://www.w3.org/2000/svg" width="50" height="50" viewBox="0 0 50 50">
  <path id="designIcon" d="M16.475,43.557,43.559,16.473,37.526,10.44,10.441,37.524Zm9.21-5.488L17.4,46.348l-.442.291L3.806,51.9a1.316,1.316,0,0,1-1.71-1.71L7.359,37.035l.291-.442,8.279-8.279L2.387,14.772a1.316,1.316,0,0,1,0-1.861L12.913,2.386a1.316,1.316,0,0,1,1.861,0L28.316,15.928,41.087,3.157a3.944,3.944,0,0,1,5.581,0L50.84,7.329a3.944,3.944,0,0,1,0,5.583L38.071,25.683,51.613,39.225a1.316,1.316,0,0,1,0,1.861L41.087,51.611a1.316,1.316,0,0,1-1.861,0Zm1.861-1.861L40.157,48.82l8.665-8.665-3.4-3.4-1.7,1.7a1.316,1.316,0,1,1-1.861-1.861l1.7-1.7-3.4-3.4-4.332,4.332a1.316,1.316,0,0,1-1.861-1.861L38.3,29.63,36.21,27.543l-8.665,8.665ZM17.79,26.453l8.665-8.665L24.369,15.7l-1.7,1.7a1.316,1.316,0,0,1-1.861-1.861l1.7-1.7-3.4-3.4-4.332,4.332a1.316,1.316,0,1,1-1.861-1.861l4.332-4.332-3.4-3.4L5.178,13.842,17.79,26.453ZM14.133,44.937,9.061,39.865,5.68,48.319l8.454-3.382ZM39.386,8.579l6.033,6.033,3.561-3.561a1.313,1.313,0,0,0,0-1.86L44.807,5.016a1.313,1.313,0,0,0-1.859,0L39.386,8.579Z" transform="translate(-1.999 -2)" fill="#381c62"/>
</svg>
