<svg xmlns="http://www.w3.org/2000/svg" width="376" height="170" viewBox="0 0 376 170">
  <path id="合体_9" data-name="合体 9" d="M418,175a11,11,0,1,1,11,11A11,11,0,0,1,418,175Zm-59,0a11,11,0,1,1,11,11A11,11,0,0,1,359,175Zm-59,0a11,11,0,1,1,11,11A11,11,0,0,1,300,175Zm-59,0a11,11,0,1,1,11,11A11,11,0,0,1,241,175Zm-59,0a11,11,0,1,1,11,11A11,11,0,0,1,182,175Zm-59,0a11,11,0,1,1,11,11A11,11,0,0,1,123,175Zm-59,0a11,11,0,1,1,11,11A11,11,0,0,1,64,175Zm354-74a11,11,0,1,1,11,11A11,11,0,0,1,418,101Zm-59,0a11,11,0,1,1,11,11A11,11,0,0,1,359,101Zm-59,0a11,11,0,1,1,11,11A11,11,0,0,1,300,101Zm-59,0a11,11,0,1,1,11,11A11,11,0,0,1,241,101Zm-59,0a11,11,0,1,1,11,11A11,11,0,0,1,182,101Zm-59,0a11,11,0,1,1,11,11A11,11,0,0,1,123,101Zm-59,0a11,11,0,1,1,11,11A11,11,0,0,1,64,101ZM418,27a11,11,0,1,1,11,11A11,11,0,0,1,418,27Zm-59,0a11,11,0,1,1,11,11A11,11,0,0,1,359,27Zm-59,0a11,11,0,1,1,11,11A11,11,0,0,1,300,27Zm-59,0a11,11,0,1,1,11,11A11,11,0,0,1,241,27Zm-59,0a11,11,0,1,1,11,11A11,11,0,0,1,182,27Zm-59,0a11,11,0,1,1,11,11A11,11,0,0,1,123,27ZM64,27A11,11,0,1,1,75,38,11,11,0,0,1,64,27Z" transform="translate(-64 -16)" fill="#381c62"/>
</svg>
