<svg xmlns="http://www.w3.org/2000/svg" width="301.662" height="98.4" viewBox="0 0 301.662 98.4">
  <path id="logo" d="M104.872,93.9h1.217a3.227,3.227,0,0,0,3.183,2.352c1.936,0,3.264-1.488,3.264-3.76V90.76a3.66,3.66,0,0,1-3.52,2.336c-2.576,0-4.512-1.968-4.512-4.912,0-2.96,1.936-4.9,4.512-4.9a3.741,3.741,0,0,1,3.52,2.353V83.4H113.7v9.087c0,2.96-1.808,4.912-4.432,4.912A4.341,4.341,0,0,1,104.872,93.9Zm.785-5.712a3.5,3.5,0,0,0,3.471,3.744,3.411,3.411,0,0,0,3.408-3.728,3.453,3.453,0,1,0-6.88-.016Zm25.711,0c0-2.96,1.857-4.9,4.593-4.9a3.76,3.76,0,0,1,3.6,2.353V83.4h1.167V93H139.56V90.76a3.694,3.694,0,0,1-3.6,2.336C133.224,93.1,131.368,91.128,131.368,88.184Zm1.168,0a3.465,3.465,0,0,0,3.52,3.744,3.415,3.415,0,0,0,3.5-3.728,3.493,3.493,0,0,0-3.5-3.76A3.457,3.457,0,0,0,132.536,88.184Zm-43.64,0a4.647,4.647,0,1,1,4.64,4.912A4.705,4.705,0,0,1,88.9,88.184Zm1.152,0a3.49,3.49,0,1,0,3.488-3.744A3.569,3.569,0,0,0,90.048,88.184ZM38.768,90.76V93H37.6V79.384h1.168V85.64a3.764,3.764,0,0,1,3.615-2.353c2.736,0,4.576,1.936,4.576,4.9,0,2.944-1.856,4.912-4.576,4.912A3.7,3.7,0,0,1,38.768,90.76Zm0-2.56a3.414,3.414,0,0,0,3.5,3.728,3.752,3.752,0,1,0-3.5-3.728Zm-17.08-.032a4.6,4.6,0,1,1,9.184-.128c0,.193-.016.384-.031.576H22.872A3.4,3.4,0,0,0,26.3,91.976,3.251,3.251,0,0,0,29.3,90.056H30.52a4.509,4.509,0,0,1-4.208,3.024A4.576,4.576,0,0,1,21.688,88.168Zm1.184-.447H29.7a3.417,3.417,0,0,0-6.832,0ZM161.6,93V88.184c0-2.288-1.168-3.744-2.976-3.744-1.648,0-2.848,1.584-2.848,3.76V93h-1.152V88.184c0-2.288-1.167-3.744-2.975-3.744-1.648,0-2.849,1.584-2.849,3.76V93h-1.152V83.4H148.8v2.24a3.118,3.118,0,0,1,3.009-2.353,3.683,3.683,0,0,1,3.584,2.528,3.443,3.443,0,0,1,3.263-2.528c2.513,0,4.112,1.936,4.112,4.9V93Zm-41.264,0V83.4H121.5v2.336a4.042,4.042,0,0,1,4.081-2.448V84.44c-2.576-.032-4.081,1.424-4.081,3.872V93ZM77.848,93V83.4h1.168v2.336a4.04,4.04,0,0,1,4.08-2.448V84.44c-2.576-.032-4.08,1.424-4.08,3.872V93ZM62.432,93V79.4h4.544c2.784,0,4.639,1.616,4.639,4.192,0,2.528-1.823,4.224-4.5,4.224H63.6V93ZM63.6,86.664h3.52a3.056,3.056,0,0,0,3.328-3.072c0-1.84-1.376-3.04-3.472-3.04H63.6ZM11.136,93,8.352,81.8,5.552,93H4.368v-.015L0,79.4H1.2L4.912,90.824,7.76,79.4h1.2l2.831,11.44L15.5,79.4h1.2L12.336,93Zm105.12-24.1h1.216a3.227,3.227,0,0,0,3.184,2.352c1.936,0,3.264-1.488,3.264-3.759V65.76A3.662,3.662,0,0,1,120.4,68.1c-2.576,0-4.513-1.967-4.513-4.912s1.937-4.9,4.513-4.9a3.741,3.741,0,0,1,3.52,2.353V58.4h1.168v9.088c0,2.96-1.808,4.911-4.433,4.911A4.341,4.341,0,0,1,116.256,68.9Zm.784-5.712a3.5,3.5,0,0,0,3.472,3.744A3.411,3.411,0,0,0,123.92,63.2a3.453,3.453,0,1,0-6.881-.016ZM94.592,65.12h1.12a2.415,2.415,0,0,0,2.528,1.967c1.28.016,2.224-.607,2.224-1.6,0-1.087-.752-1.584-2.624-2.064-1.616-.416-2.9-1.1-2.9-2.656,0-1.488,1.425-2.48,3.264-2.48a3.067,3.067,0,0,1,3.264,2.608H100.4a2.108,2.108,0,0,0-2.192-1.6c-1.184-.015-2.1.608-2.1,1.456-.016,1.216,1.5,1.568,2.1,1.712,1.488.4,3.424.8,3.424,3.024,0,1.552-1.455,2.608-3.424,2.608A3.421,3.421,0,0,1,94.592,65.12Zm-55.823.64V68H37.6V54.384h1.168V60.64a3.764,3.764,0,0,1,3.615-2.353c2.736,0,4.576,1.937,4.576,4.9S45.1,68.1,42.384,68.1A3.7,3.7,0,0,1,38.768,65.76Zm0-2.56a3.414,3.414,0,0,0,3.5,3.728,3.752,3.752,0,1,0-3.5-3.728Zm40.615-.032a4.6,4.6,0,1,1,9.185-.129c0,.193-.016.384-.032.576H80.568a3.4,3.4,0,0,0,3.424,3.361A3.25,3.25,0,0,0,87,65.056h1.216a4.508,4.508,0,0,1-4.208,3.024A4.575,4.575,0,0,1,79.384,63.168Zm1.184-.448H87.4a3.417,3.417,0,0,0-6.832,0Zm-58.88.448a4.6,4.6,0,1,1,9.184-.129c0,.193-.016.384-.031.576H22.872A3.4,3.4,0,0,0,26.3,66.976,3.249,3.249,0,0,0,29.3,65.056H30.52a4.507,4.507,0,0,1-4.208,3.024A4.575,4.575,0,0,1,21.688,63.168Zm1.184-.448H29.7a3.417,3.417,0,0,0-6.832,0ZM138.792,68V63.184c0-2.288-1.167-3.744-2.975-3.744-1.648,0-2.848,1.584-2.848,3.76V68h-1.152V58.4h1.152v2.24a3.118,3.118,0,0,1,3.008-2.353c2.433,0,3.968,1.937,3.968,4.9V68Zm-30.656,0V58.4H109.3V68ZM62.464,68V54.4H66.24c4.384,0,6.784,2.4,6.784,6.8,0,4.384-2.368,6.8-6.64,6.8Zm1.152-1.168h2.768c3.536,0,5.472-2,5.472-5.632,0-3.68-1.968-5.648-5.616-5.648H63.616ZM11.136,68,8.352,56.8,5.552,68H4.368v-.016L0,54.4H1.2L4.912,65.824,7.76,54.4h1.2L11.792,65.84,15.5,54.4h1.2L12.336,68ZM107.96,55.408a.752.752,0,1,1,.752.752A.71.71,0,0,1,107.96,55.408ZM276.916,21.96c0-6.92,5.161-12.24,11.8-12.24s11.759,5.32,11.759,12.24c0,6.96-5.12,12.28-11.759,12.28S276.916,28.92,276.916,21.96Zm5,0c0,4.16,2.96,7.28,6.8,7.28s6.76-3.12,6.76-7.28c0-4.12-2.921-7.24-6.76-7.24A6.9,6.9,0,0,0,281.916,21.96Zm-104.88,0c0-7.36,4.479-12.24,11.44-12.24,3.32,0,6.6,1.72,7.64,4.2V10h5V34h-5V30.08c-1.04,2.44-4.28,4.16-7.64,4.16C181.556,34.24,177.036,29.36,177.036,21.96Zm5,0c0,4.4,2.88,7.28,7.08,7.28,4.16,0,7.04-2.92,7-7.24a6.893,6.893,0,0,0-7.041-7.279C184.876,14.72,182.036,17.6,182.036,21.96Zm-87.619,0c0-6.92,5.16-12.24,11.8-12.24s11.759,5.32,11.759,12.24c0,6.96-5.119,12.28-11.759,12.28S94.416,28.92,94.416,21.96Zm5,0c0,4.16,2.96,7.28,6.8,7.28s6.76-3.12,6.76-7.28c0-4.12-2.921-7.24-6.76-7.24A6.9,6.9,0,0,0,99.416,21.96Zm-68.58,0c0-7.36,4.48-12.24,11.44-12.24,3.32,0,6.6,1.72,7.64,4.2V10h5V34h-5V30.08c-1.04,2.44-4.279,4.16-7.64,4.16C35.356,34.24,30.836,29.36,30.836,21.96Zm5,0c0,4.4,2.88,7.28,7.079,7.28,4.161,0,7.041-2.92,7-7.24a6.892,6.892,0,0,0-7.04-7.279C38.676,14.72,35.836,17.6,35.836,21.96ZM265.1,34V21.96c0-4.4-2.28-7.24-5.8-7.24-3.24,0-5.6,3.039-5.6,7.279V34h-5V10h5v3.92a6.842,6.842,0,0,1,6.48-4.2c6.08,0,9.921,4.84,9.921,12.24V34Zm-29.06,0V10h5V34Zm-12.46,0L214.1,22.84V34h-5V0h5V21.16L223.576,10h5.52l-9.48,12,10.36,12Zm-58.361,0V9.56l-8.959,14h-4.04l-8.96-14V34h-5V0h5l10.96,17.6,11-17.6h5V34Zm-78.5,0C81,34,78.6,31.64,78.6,25.76V14.72h-3.56V10H78.6l1.2-5.08h3.8V10h5.2V14.72H83.6V25.48c0,2.48,1.12,3.56,3.6,3.56h1.6V34Zm-23.66,0V10h5V34Zm-42.48,0L6.9,17.92V34h-5V0h5V16.44L19.816,0H25.7L12.5,17l14.48,17ZM235.636,2.96a2.9,2.9,0,0,1,5.8,0,2.9,2.9,0,1,1-5.8,0Zm-172.98,0a2.9,2.9,0,0,1,5.8,0,2.9,2.9,0,1,1-5.8,0Z" transform="translate(0.686 0.5)" fill="#381c62" stroke="rgba(0,0,0,0)" stroke-miterlimit="10" stroke-width="1"/>
</svg>
