<svg xmlns="http://www.w3.org/2000/svg" width="1920" height="65" viewBox="0 0 1920 65">
  <path id="skillSideItem" d="M1974,76a5,5,0,1,1,5,5A5,5,0,0,1,1974,76Zm-18,0a5,5,0,1,1,5,5A5,5,0,0,1,1956,76Zm-19,0a5,5,0,1,1,5,5A5,5,0,0,1,1937,76Zm-18,0a5,5,0,1,1,5,5A5,5,0,0,1,1919,76Zm-18,0a5,5,0,1,1,5,5A5,5,0,0,1,1901,76Zm-19,0a5,5,0,1,1,5,5A5,5,0,0,1,1882,76Zm-18,0a5,5,0,1,1,5,5A5,5,0,0,1,1864,76Zm-18,0a5,5,0,1,1,5,5A5,5,0,0,1,1846,76Zm-19,0a5,5,0,1,1,5,5A5,5,0,0,1,1827,76Zm-18,0a5,5,0,1,1,5,5A5,5,0,0,1,1809,76Zm-18,0a5,5,0,1,1,5,5A5,5,0,0,1,1791,76Zm-19,0a5,5,0,1,1,5,5A5,5,0,0,1,1772,76Zm-18,0a5,5,0,1,1,5,5A5,5,0,0,1,1754,76Zm-18,0a5,5,0,1,1,5,5A5,5,0,0,1,1736,76Zm-19,0a5,5,0,1,1,5,5A5,5,0,0,1,1717,76Zm-18,0a5,5,0,1,1,5,5A5,5,0,0,1,1699,76Zm-18,0a5,5,0,1,1,5,5A5,5,0,0,1,1681,76Zm-19,0a5,5,0,1,1,5,5A5,5,0,0,1,1662,76ZM468,76a5,5,0,1,1,5,5A5,5,0,0,1,468,76Zm-19,0a5,5,0,1,1,5,5A5,5,0,0,1,449,76Zm-18,0a5,5,0,1,1,5,5A5,5,0,0,1,431,76Zm-18,0a5,5,0,1,1,5,5A5,5,0,0,1,413,76Zm-19,0a5,5,0,1,1,5,5A5,5,0,0,1,394,76Zm-18,0a5,5,0,1,1,5,5A5,5,0,0,1,376,76Zm-18,0a5,5,0,1,1,5,5A5,5,0,0,1,358,76Zm-19,0a5,5,0,1,1,5,5A5,5,0,0,1,339,76Zm-18,0a5,5,0,1,1,5,5A5,5,0,0,1,321,76Zm-18,0a5,5,0,1,1,5,5A5,5,0,0,1,303,76Zm-19,0a5,5,0,1,1,5,5A5,5,0,0,1,284,76Zm-18,0a5,5,0,1,1,5,5A5,5,0,0,1,266,76Zm-18,0a5,5,0,1,1,5,5A5,5,0,0,1,248,76Zm-19,0a5,5,0,1,1,5,5A5,5,0,0,1,229,76Zm-18,0a5,5,0,1,1,5,5A5,5,0,0,1,211,76Zm-18,0a5,5,0,1,1,5,5A5,5,0,0,1,193,76Zm-19,0a5,5,0,1,1,5,5A5,5,0,0,1,174,76Zm-18,0a5,5,0,1,1,5,5A5,5,0,0,1,156,76Zm-18,0a5,5,0,1,1,5,5A5,5,0,0,1,138,76Zm-19,0a5,5,0,1,1,5,5A5,5,0,0,1,119,76Zm-18,0a5,5,0,1,1,5,5A5,5,0,0,1,101,76ZM83,76a5,5,0,1,1,5,5A5,5,0,0,1,83,76ZM64,76a5,5,0,1,1,5,5A5,5,0,0,1,64,76ZM1974,58a5,5,0,1,1,5,5A5,5,0,0,1,1974,58Zm-18,0a5,5,0,1,1,5,5A5,5,0,0,1,1956,58Zm-19,0a5,5,0,1,1,5,5A5,5,0,0,1,1937,58Zm-18,0a5,5,0,1,1,5,5A5,5,0,0,1,1919,58Zm-18,0a5,5,0,1,1,5,5A5,5,0,0,1,1901,58Zm-19,0a5,5,0,1,1,5,5A5,5,0,0,1,1882,58Zm-18,0a5,5,0,1,1,5,5A5,5,0,0,1,1864,58Zm-18,0a5,5,0,1,1,5,5A5,5,0,0,1,1846,58Zm-19,0a5,5,0,1,1,5,5A5,5,0,0,1,1827,58Zm-18,0a5,5,0,1,1,5,5A5,5,0,0,1,1809,58Zm-18,0a5,5,0,1,1,5,5A5,5,0,0,1,1791,58Zm-19,0a5,5,0,1,1,5,5A5,5,0,0,1,1772,58Zm-18,0a5,5,0,1,1,5,5A5,5,0,0,1,1754,58Zm-18,0a5,5,0,1,1,5,5A5,5,0,0,1,1736,58Zm-19,0a5,5,0,1,1,5,5A5,5,0,0,1,1717,58Zm-18,0a5,5,0,1,1,5,5A5,5,0,0,1,1699,58Zm-18,0a5,5,0,1,1,5,5A5,5,0,0,1,1681,58Zm-19,0a5,5,0,1,1,5,5A5,5,0,0,1,1662,58Zm-18,0a5,5,0,1,1,5,5A5,5,0,0,1,1644,58ZM449,58a5,5,0,1,1,5,5A5,5,0,0,1,449,58Zm-18,0a5,5,0,1,1,5,5A5,5,0,0,1,431,58Zm-18,0a5,5,0,1,1,5,5A5,5,0,0,1,413,58Zm-19,0a5,5,0,1,1,5,5A5,5,0,0,1,394,58Zm-18,0a5,5,0,1,1,5,5A5,5,0,0,1,376,58Zm-18,0a5,5,0,1,1,5,5A5,5,0,0,1,358,58Zm-19,0a5,5,0,1,1,5,5A5,5,0,0,1,339,58Zm-18,0a5,5,0,1,1,5,5A5,5,0,0,1,321,58Zm-18,0a5,5,0,1,1,5,5A5,5,0,0,1,303,58Zm-19,0a5,5,0,1,1,5,5A5,5,0,0,1,284,58Zm-18,0a5,5,0,1,1,5,5A5,5,0,0,1,266,58Zm-18,0a5,5,0,1,1,5,5A5,5,0,0,1,248,58Zm-19,0a5,5,0,1,1,5,5A5,5,0,0,1,229,58Zm-18,0a5,5,0,1,1,5,5A5,5,0,0,1,211,58Zm-18,0a5,5,0,1,1,5,5A5,5,0,0,1,193,58Zm-19,0a5,5,0,1,1,5,5A5,5,0,0,1,174,58Zm-18,0a5,5,0,1,1,5,5A5,5,0,0,1,156,58Zm-18,0a5,5,0,1,1,5,5A5,5,0,0,1,138,58Zm-19,0a5,5,0,1,1,5,5A5,5,0,0,1,119,58Zm-18,0a5,5,0,1,1,5,5A5,5,0,0,1,101,58ZM83,58a5,5,0,1,1,5,5A5,5,0,0,1,83,58ZM64,58a5,5,0,1,1,5,5A5,5,0,0,1,64,58ZM1974,39a5,5,0,1,1,5,5A5,5,0,0,1,1974,39Zm-18,0a5,5,0,1,1,5,5A5,5,0,0,1,1956,39Zm-19,0a5,5,0,1,1,5,5A5,5,0,0,1,1937,39Zm-18,0a5,5,0,1,1,5,5A5,5,0,0,1,1919,39Zm-18,0a5,5,0,1,1,5,5A5,5,0,0,1,1901,39Zm-19,0a5,5,0,1,1,5,5A5,5,0,0,1,1882,39Zm-18,0a5,5,0,1,1,5,5A5,5,0,0,1,1864,39Zm-18,0a5,5,0,1,1,5,5A5,5,0,0,1,1846,39Zm-19,0a5,5,0,1,1,5,5A5,5,0,0,1,1827,39Zm-18,0a5,5,0,1,1,5,5A5,5,0,0,1,1809,39Zm-18,0a5,5,0,1,1,5,5A5,5,0,0,1,1791,39Zm-19,0a5,5,0,1,1,5,5A5,5,0,0,1,1772,39Zm-18,0a5,5,0,1,1,5,5A5,5,0,0,1,1754,39Zm-18,0a5,5,0,1,1,5,5A5,5,0,0,1,1736,39Zm-19,0a5,5,0,1,1,5,5A5,5,0,0,1,1717,39Zm-18,0a5,5,0,1,1,5,5A5,5,0,0,1,1699,39Zm-18,0a5,5,0,1,1,5,5A5,5,0,0,1,1681,39Zm-19,0a5,5,0,1,1,5,5A5,5,0,0,1,1662,39Zm-18,0a5,5,0,1,1,5,5A5,5,0,0,1,1644,39Zm-18,0a5,5,0,1,1,5,5A5,5,0,0,1,1626,39ZM431,39a5,5,0,1,1,5,5A5,5,0,0,1,431,39Zm-18,0a5,5,0,1,1,5,5A5,5,0,0,1,413,39Zm-19,0a5,5,0,1,1,5,5A5,5,0,0,1,394,39Zm-18,0a5,5,0,1,1,5,5A5,5,0,0,1,376,39Zm-18,0a5,5,0,1,1,5,5A5,5,0,0,1,358,39Zm-19,0a5,5,0,1,1,5,5A5,5,0,0,1,339,39Zm-18,0a5,5,0,1,1,5,5A5,5,0,0,1,321,39Zm-18,0a5,5,0,1,1,5,5A5,5,0,0,1,303,39Zm-19,0a5,5,0,1,1,5,5A5,5,0,0,1,284,39Zm-18,0a5,5,0,1,1,5,5A5,5,0,0,1,266,39Zm-18,0a5,5,0,1,1,5,5A5,5,0,0,1,248,39Zm-19,0a5,5,0,1,1,5,5A5,5,0,0,1,229,39Zm-18,0a5,5,0,1,1,5,5A5,5,0,0,1,211,39Zm-18,0a5,5,0,1,1,5,5A5,5,0,0,1,193,39Zm-19,0a5,5,0,1,1,5,5A5,5,0,0,1,174,39Zm-18,0a5,5,0,1,1,5,5A5,5,0,0,1,156,39Zm-18,0a5,5,0,1,1,5,5A5,5,0,0,1,138,39Zm-19,0a5,5,0,1,1,5,5A5,5,0,0,1,119,39Zm-18,0a5,5,0,1,1,5,5A5,5,0,0,1,101,39ZM83,39a5,5,0,1,1,5,5A5,5,0,0,1,83,39ZM64,39a5,5,0,1,1,5,5A5,5,0,0,1,64,39ZM1974,21a5,5,0,1,1,5,5A5,5,0,0,1,1974,21Zm-18,0a5,5,0,1,1,5,5A5,5,0,0,1,1956,21Zm-19,0a5,5,0,1,1,5,5A5,5,0,0,1,1937,21Zm-18,0a5,5,0,1,1,5,5A5,5,0,0,1,1919,21Zm-18,0a5,5,0,1,1,5,5A5,5,0,0,1,1901,21Zm-19,0a5,5,0,1,1,5,5A5,5,0,0,1,1882,21Zm-18,0a5,5,0,1,1,5,5A5,5,0,0,1,1864,21Zm-18,0a5,5,0,1,1,5,5A5,5,0,0,1,1846,21Zm-19,0a5,5,0,1,1,5,5A5,5,0,0,1,1827,21Zm-18,0a5,5,0,1,1,5,5A5,5,0,0,1,1809,21Zm-18,0a5,5,0,1,1,5,5A5,5,0,0,1,1791,21Zm-19,0a5,5,0,1,1,5,5A5,5,0,0,1,1772,21Zm-18,0a5,5,0,1,1,5,5A5,5,0,0,1,1754,21Zm-18,0a5,5,0,1,1,5,5A5,5,0,0,1,1736,21Zm-19,0a5,5,0,1,1,5,5A5,5,0,0,1,1717,21Zm-18,0a5,5,0,1,1,5,5A5,5,0,0,1,1699,21Zm-18,0a5,5,0,1,1,5,5A5,5,0,0,1,1681,21Zm-19,0a5,5,0,1,1,5,5A5,5,0,0,1,1662,21Zm-18,0a5,5,0,1,1,5,5A5,5,0,0,1,1644,21Zm-18,0a5,5,0,1,1,5,5A5,5,0,0,1,1626,21Zm-19,0a5,5,0,1,1,5,5A5,5,0,0,1,1607,21ZM413,21a5,5,0,1,1,5,5A5,5,0,0,1,413,21Zm-19,0a5,5,0,1,1,5,5A5,5,0,0,1,394,21Zm-18,0a5,5,0,1,1,5,5A5,5,0,0,1,376,21Zm-18,0a5,5,0,1,1,5,5A5,5,0,0,1,358,21Zm-19,0a5,5,0,1,1,5,5A5,5,0,0,1,339,21Zm-18,0a5,5,0,1,1,5,5A5,5,0,0,1,321,21Zm-18,0a5,5,0,1,1,5,5A5,5,0,0,1,303,21Zm-19,0a5,5,0,1,1,5,5A5,5,0,0,1,284,21Zm-18,0a5,5,0,1,1,5,5A5,5,0,0,1,266,21Zm-18,0a5,5,0,1,1,5,5A5,5,0,0,1,248,21Zm-19,0a5,5,0,1,1,5,5A5,5,0,0,1,229,21Zm-18,0a5,5,0,1,1,5,5A5,5,0,0,1,211,21Zm-18,0a5,5,0,1,1,5,5A5,5,0,0,1,193,21Zm-19,0a5,5,0,1,1,5,5A5,5,0,0,1,174,21Zm-18,0a5,5,0,1,1,5,5A5,5,0,0,1,156,21Zm-18,0a5,5,0,1,1,5,5A5,5,0,0,1,138,21Zm-19,0a5,5,0,1,1,5,5A5,5,0,0,1,119,21Zm-18,0a5,5,0,1,1,5,5A5,5,0,0,1,101,21ZM83,21a5,5,0,1,1,5,5A5,5,0,0,1,83,21ZM64,21a5,5,0,1,1,5,5A5,5,0,0,1,64,21Z" transform="translate(-64 -16)" fill="#381c62"/>
</svg>
