<svg xmlns="http://www.w3.org/2000/svg" width="377" height="65" viewBox="0 0 377 65">
  <path id="合体_10" data-name="合体 10" d="M431,76a5,5,0,1,1,5,5A5,5,0,0,1,431,76Zm-18,0a5,5,0,1,1,5,5A5,5,0,0,1,413,76Zm-19,0a5,5,0,1,1,5,5A5,5,0,0,1,394,76Zm-18,0a5,5,0,1,1,5,5A5,5,0,0,1,376,76Zm-18,0a5,5,0,1,1,5,5A5,5,0,0,1,358,76Zm-19,0a5,5,0,1,1,5,5A5,5,0,0,1,339,76Zm-18,0a5,5,0,1,1,5,5A5,5,0,0,1,321,76Zm-18,0a5,5,0,1,1,5,5A5,5,0,0,1,303,76Zm-19,0a5,5,0,1,1,5,5A5,5,0,0,1,284,76Zm-18,0a5,5,0,1,1,5,5A5,5,0,0,1,266,76Zm-18,0a5,5,0,1,1,5,5A5,5,0,0,1,248,76Zm-19,0a5,5,0,1,1,5,5A5,5,0,0,1,229,76Zm-18,0a5,5,0,1,1,5,5A5,5,0,0,1,211,76Zm-18,0a5,5,0,1,1,5,5A5,5,0,0,1,193,76Zm-19,0a5,5,0,1,1,5,5A5,5,0,0,1,174,76Zm-18,0a5,5,0,1,1,5,5A5,5,0,0,1,156,76Zm-18,0a5,5,0,1,1,5,5A5,5,0,0,1,138,76Zm-19,0a5,5,0,1,1,5,5A5,5,0,0,1,119,76ZM431,58a5,5,0,1,1,5,5A5,5,0,0,1,431,58Zm-18,0a5,5,0,1,1,5,5A5,5,0,0,1,413,58Zm-19,0a5,5,0,1,1,5,5A5,5,0,0,1,394,58Zm-18,0a5,5,0,1,1,5,5A5,5,0,0,1,376,58Zm-18,0a5,5,0,1,1,5,5A5,5,0,0,1,358,58Zm-19,0a5,5,0,1,1,5,5A5,5,0,0,1,339,58Zm-18,0a5,5,0,1,1,5,5A5,5,0,0,1,321,58Zm-18,0a5,5,0,1,1,5,5A5,5,0,0,1,303,58Zm-19,0a5,5,0,1,1,5,5A5,5,0,0,1,284,58Zm-18,0a5,5,0,1,1,5,5A5,5,0,0,1,266,58Zm-18,0a5,5,0,1,1,5,5A5,5,0,0,1,248,58Zm-19,0a5,5,0,1,1,5,5A5,5,0,0,1,229,58Zm-18,0a5,5,0,1,1,5,5A5,5,0,0,1,211,58Zm-18,0a5,5,0,1,1,5,5A5,5,0,0,1,193,58Zm-19,0a5,5,0,1,1,5,5A5,5,0,0,1,174,58Zm-18,0a5,5,0,1,1,5,5A5,5,0,0,1,156,58Zm-18,0a5,5,0,1,1,5,5A5,5,0,0,1,138,58Zm-19,0a5,5,0,1,1,5,5A5,5,0,0,1,119,58Zm-18,0a5,5,0,1,1,5,5A5,5,0,0,1,101,58ZM431,39a5,5,0,1,1,5,5A5,5,0,0,1,431,39Zm-18,0a5,5,0,1,1,5,5A5,5,0,0,1,413,39Zm-19,0a5,5,0,1,1,5,5A5,5,0,0,1,394,39Zm-18,0a5,5,0,1,1,5,5A5,5,0,0,1,376,39Zm-18,0a5,5,0,1,1,5,5A5,5,0,0,1,358,39Zm-19,0a5,5,0,1,1,5,5A5,5,0,0,1,339,39Zm-18,0a5,5,0,1,1,5,5A5,5,0,0,1,321,39Zm-18,0a5,5,0,1,1,5,5A5,5,0,0,1,303,39Zm-19,0a5,5,0,1,1,5,5A5,5,0,0,1,284,39Zm-18,0a5,5,0,1,1,5,5A5,5,0,0,1,266,39Zm-18,0a5,5,0,1,1,5,5A5,5,0,0,1,248,39Zm-19,0a5,5,0,1,1,5,5A5,5,0,0,1,229,39Zm-18,0a5,5,0,1,1,5,5A5,5,0,0,1,211,39Zm-18,0a5,5,0,1,1,5,5A5,5,0,0,1,193,39Zm-19,0a5,5,0,1,1,5,5A5,5,0,0,1,174,39Zm-18,0a5,5,0,1,1,5,5A5,5,0,0,1,156,39Zm-18,0a5,5,0,1,1,5,5A5,5,0,0,1,138,39Zm-19,0a5,5,0,1,1,5,5A5,5,0,0,1,119,39Zm-18,0a5,5,0,1,1,5,5A5,5,0,0,1,101,39ZM83,39a5,5,0,1,1,5,5A5,5,0,0,1,83,39ZM431,21a5,5,0,1,1,5,5A5,5,0,0,1,431,21Zm-18,0a5,5,0,1,1,5,5A5,5,0,0,1,413,21Zm-19,0a5,5,0,1,1,5,5A5,5,0,0,1,394,21Zm-18,0a5,5,0,1,1,5,5A5,5,0,0,1,376,21Zm-18,0a5,5,0,1,1,5,5A5,5,0,0,1,358,21Zm-19,0a5,5,0,1,1,5,5A5,5,0,0,1,339,21Zm-18,0a5,5,0,1,1,5,5A5,5,0,0,1,321,21Zm-18,0a5,5,0,1,1,5,5A5,5,0,0,1,303,21Zm-19,0a5,5,0,1,1,5,5A5,5,0,0,1,284,21Zm-18,0a5,5,0,1,1,5,5A5,5,0,0,1,266,21Zm-18,0a5,5,0,1,1,5,5A5,5,0,0,1,248,21Zm-19,0a5,5,0,1,1,5,5A5,5,0,0,1,229,21Zm-18,0a5,5,0,1,1,5,5A5,5,0,0,1,211,21Zm-18,0a5,5,0,1,1,5,5A5,5,0,0,1,193,21Zm-19,0a5,5,0,1,1,5,5A5,5,0,0,1,174,21Zm-18,0a5,5,0,1,1,5,5A5,5,0,0,1,156,21Zm-18,0a5,5,0,1,1,5,5A5,5,0,0,1,138,21Zm-19,0a5,5,0,1,1,5,5A5,5,0,0,1,119,21Zm-18,0a5,5,0,1,1,5,5A5,5,0,0,1,101,21ZM83,21a5,5,0,1,1,5,5A5,5,0,0,1,83,21ZM64,21a5,5,0,1,1,5,5A5,5,0,0,1,64,21Z" transform="translate(-64 -16)" fill="#381c62"/>
</svg>
