<svg xmlns="http://www.w3.org/2000/svg" width="170" height="1608" viewBox="0 0 170 1608">
  <path id="workSideItem" d="M-3832,1597a11,11,0,0,1,11-11,11,11,0,0,1,11,11,11,11,0,0,1-11,11A11,11,0,0,1-3832,1597Zm-74,0a11,11,0,0,1,11-11,11,11,0,0,1,11,11,11,11,0,0,1-11,11A11,11,0,0,1-3906,1597Zm-74,0a11,11,0,0,1,11-11,11,11,0,0,1,11,11,11,11,0,0,1-11,11A11,11,0,0,1-3980,1597Zm148-122a11,11,0,0,1,11-11,11,11,0,0,1,11,11,11,11,0,0,1-11,11A11,11,0,0,1-3832,1475Zm-74,0a11,11,0,0,1,11-11,11,11,0,0,1,11,11,11,11,0,0,1-11,11A11,11,0,0,1-3906,1475Zm-74,0a11,11,0,0,1,11-11,11,11,0,0,1,11,11,11,11,0,0,1-11,11A11,11,0,0,1-3980,1475Zm148-122a11,11,0,0,1,11-11,11,11,0,0,1,11,11,11,11,0,0,1-11,11A11,11,0,0,1-3832,1353Zm-74,0a11,11,0,0,1,11-11,11,11,0,0,1,11,11,11,11,0,0,1-11,11A11,11,0,0,1-3906,1353Zm-74,0a11,11,0,0,1,11-11,11,11,0,0,1,11,11,11,11,0,0,1-11,11A11,11,0,0,1-3980,1353Zm148-122a11,11,0,0,1,11-11,11,11,0,0,1,11,11,11,11,0,0,1-11,11A11,11,0,0,1-3832,1231Zm-74,0a11,11,0,0,1,11-11,11,11,0,0,1,11,11,11,11,0,0,1-11,11A11,11,0,0,1-3906,1231Zm-74,0a11,11,0,0,1,11-11,11,11,0,0,1,11,11,11,11,0,0,1-11,11A11,11,0,0,1-3980,1231Zm148-122a11,11,0,0,1,11-11,11,11,0,0,1,11,11,11,11,0,0,1-11,11A11,11,0,0,1-3832,1109Zm-74,0a11,11,0,0,1,11-11,11,11,0,0,1,11,11,11,11,0,0,1-11,11A11,11,0,0,1-3906,1109Zm-74,0a11,11,0,0,1,11-11,11,11,0,0,1,11,11,11,11,0,0,1-11,11A11,11,0,0,1-3980,1109Zm148-122a11,11,0,0,1,11-11,11,11,0,0,1,11,11,11,11,0,0,1-11,11A11,11,0,0,1-3832,987Zm-74,0a11,11,0,0,1,11-11,11,11,0,0,1,11,11,11,11,0,0,1-11,11A11,11,0,0,1-3906,987Zm-74,0a11,11,0,0,1,11-11,11,11,0,0,1,11,11,11,11,0,0,1-11,11A11,11,0,0,1-3980,987Zm148-122a11,11,0,0,1,11-11,11,11,0,0,1,11,11,11,11,0,0,1-11,11A11,11,0,0,1-3832,865Zm-74,0a11,11,0,0,1,11-11,11,11,0,0,1,11,11,11,11,0,0,1-11,11A11,11,0,0,1-3906,865Zm-74,0a11,11,0,0,1,11-11,11,11,0,0,1,11,11,11,11,0,0,1-11,11A11,11,0,0,1-3980,865Zm148-122a11,11,0,0,1,11-11,11,11,0,0,1,11,11,11,11,0,0,1-11,11A11,11,0,0,1-3832,743Zm-74,0a11,11,0,0,1,11-11,11,11,0,0,1,11,11,11,11,0,0,1-11,11A11,11,0,0,1-3906,743Zm-74,0a11,11,0,0,1,11-11,11,11,0,0,1,11,11,11,11,0,0,1-11,11A11,11,0,0,1-3980,743Zm148-122a11,11,0,0,1,11-11,11,11,0,0,1,11,11,11,11,0,0,1-11,11A11,11,0,0,1-3832,621Zm-74,0a11,11,0,0,1,11-11,11,11,0,0,1,11,11,11,11,0,0,1-11,11A11,11,0,0,1-3906,621Zm-74,0a11,11,0,0,1,11-11,11,11,0,0,1,11,11,11,11,0,0,1-11,11A11,11,0,0,1-3980,621Zm148-122a11,11,0,0,1,11-11,11,11,0,0,1,11,11,11,11,0,0,1-11,11A11,11,0,0,1-3832,499Zm-74,0a11,11,0,0,1,11-11,11,11,0,0,1,11,11,11,11,0,0,1-11,11A11,11,0,0,1-3906,499Zm-74,0a11,11,0,0,1,11-11,11,11,0,0,1,11,11,11,11,0,0,1-11,11A11,11,0,0,1-3980,499Zm148-122a11,11,0,0,1,11-11,11,11,0,0,1,11,11,11,11,0,0,1-11,11A11,11,0,0,1-3832,377Zm-74,0a11,11,0,0,1,11-11,11,11,0,0,1,11,11,11,11,0,0,1-11,11A11,11,0,0,1-3906,377Zm-74,0a11,11,0,0,1,11-11,11,11,0,0,1,11,11,11,11,0,0,1-11,11A11,11,0,0,1-3980,377Zm148-122a11,11,0,0,1,11-11,11,11,0,0,1,11,11,11,11,0,0,1-11,11A11,11,0,0,1-3832,255Zm-74,0a11,11,0,0,1,11-11,11,11,0,0,1,11,11,11,11,0,0,1-11,11A11,11,0,0,1-3906,255Zm-74,0a11,11,0,0,1,11-11,11,11,0,0,1,11,11,11,11,0,0,1-11,11A11,11,0,0,1-3980,255Zm148-122a11,11,0,0,1,11-11,11,11,0,0,1,11,11,11,11,0,0,1-11,11A11,11,0,0,1-3832,133Zm-74,0a11,11,0,0,1,11-11,11,11,0,0,1,11,11,11,11,0,0,1-11,11A11,11,0,0,1-3906,133Zm-74,0a11,11,0,0,1,11-11,11,11,0,0,1,11,11,11,11,0,0,1-11,11A11,11,0,0,1-3980,133Zm148-122a11,11,0,0,1,11-11,11,11,0,0,1,11,11,11,11,0,0,1-11,11A11,11,0,0,1-3832,11Zm-74,0a11,11,0,0,1,11-11,11,11,0,0,1,11,11,11,11,0,0,1-11,11A11,11,0,0,1-3906,11Zm-74,0a11,11,0,0,1,11-11,11,11,0,0,1,11,11,11,11,0,0,1-11,11A11,11,0,0,1-3980,11Z" transform="translate(3980)" fill="#381c62"/>
</svg>
